<?xml version="1.0" encoding="utf-8"?>
<!-- Generator: Adobe Illustrator 28.0.0, SVG Export Plug-In . SVG Version: 6.00 Build 0)  -->
<svg version="1.1" id="Layer_1" xmlns="http://www.w3.org/2000/svg" xmlns:xlink="http://www.w3.org/1999/xlink" x="0px" y="0px"
	 viewBox="0 0 200 200" style="enable-background:new 0 0 200 200;" xml:space="preserve">
<style type="text/css">
	.st0{fill:#231F20;}
	.st1{fill:#FFFFFF;}
</style>
<circle class="st0" cx="99.5" cy="100" r="88.4"/>
<g>
	<path class="st1" d="M31.3,83.8c-1.2-1.3-2.3-1.5-3.5-1.7c-1.5-0.2-2.3-0.4-2.3-1.3c0-1.1,1.7-1.1,2.7-1.1c3.1,0,6.2,0.2,9.2,0.2
		c2.8,0,6.5-0.2,8.1-0.2c0.8,0,2.7,0.1,2.7,1.1c0,0.9-1.3,1-2.5,1.3c-1.2,0.3-2.7,0.7-2.7,2c0,1.1,8.2,10.2,9.7,10.2
		c1,0,1.9-1,2.7-2l4-5.7c0.6-0.8,1.5-2,1.5-3.2c0-1-1.5-1.1-2.7-1.3c-1.7-0.3-2.7-0.4-2.7-1.3c0-0.8,0.5-1.1,2.5-1.1
		c2.8,0,5.5,0.2,8.2,0.2c2.4,0,5-0.2,7.4-0.2c1.5,0,3.5,0.1,3.5,1.2s-1.5,0.9-2.9,1.2c-3.5,0.7-6.4,1.5-8.6,3.8l-9.8,10.2
		c-0.1,0.2-0.5,0.6-0.5,1c0,1.5,9.8,11,11.3,12.6c2.7,2.9,3.9,4.5,8.1,6c1.7,0.6,2.7,0.9,2.7,1.8c0,0.6-1.7,0.6-2.9,0.6
		c-1.8,0-5.8-0.4-9.8-0.4c-2.9,0-5.8,0.4-7.4,0.4c-0.6,0-2.7,0-2.7-1c0-0.7,1.2-1.1,1.9-1.4c1.8-0.7,3-1.3,3-2.1
		c0-0.5-1.9-2.3-3.2-3.8l-5.5-6.4c-0.2-0.2-0.6-0.4-0.8-0.4c-2.1,0-8,7.4-8,9.7c0,1.2,1.1,2.4,3,3c1.2,0.4,2.5,0.8,2.5,1.5
		c0,0.9-1.3,0.9-2.4,0.9c-1.9,0-4.5-0.4-8.1-0.4c-3.6,0-6.2,0.4-8,0.4c-1.1,0-3.4-0.1-3.4-1c0-0.8,1.2-1.2,1.9-1.4
		c2.5-0.7,4.6-1.5,6.2-2.5c1.1-0.7,13.2-12.3,13.2-13c0-0.5-0.5-1.1-1-1.6L31.3,83.8z"/>
	<path class="st1" d="M105.4,108.5c0.4,0.8,0.6,1.3,1.1,1.3c0.7,0,1-0.7,1.3-1.3l8-15c1.3-2.5,2.9-5.8,2.9-8.2
		c0-3.4-7.4-2.4-7.4-4.5c0-0.7,0.7-1.1,2.3-1.1c0.5,0,1.6,0.2,6.9,0.2c4.9,0,6.2-0.2,7.2-0.2c1.7,0,2.8,0.4,2.8,1.1
		c0,1.7-4.5,1-6.4,4.7L99.5,133c-2.3,4.4-4.1,6.7-9.3,6.7c-4.8,0-6.3-2.2-6.3-4.1c0-2.6,2.1-3.7,4.9-3.7c2.2,0,3.6,0.9,5,0.9
		c2.4,0,7.6-12,7.6-13.2c0-1.5-0.9-2.8-1.4-4.3L86.6,85.1c-1-2.2-6.2-2.4-6.2-4.1c0-0.8,0.7-1.3,2.7-1.3c2.7,0,5.5,0.2,8.4,0.2
		s5.8-0.2,9.6-0.2c1.9,0,2.4,0.4,2.4,1.4c0,1.4-7.8,0.7-7.8,3.6c0,0.5,0.4,1.4,0.7,2.2L105.4,108.5z"/>
	<path class="st1" d="M160.9,86c0.5-0.5,0.9-1.1,0.9-1.4c0-1.1-1.9-1.3-7.8-1.3c-2.1,0-7.5,0.3-9.3,0.6c-3.6,0.6-6.7,4.4-8,4.4
		c-0.7,0-1.2-0.4-1.2-1c0-0.3,0.1-0.6,0.2-1l3-8.1c0.4-0.8,1-1.7,2.1-1.7c1,0,1.3,0.6,1.3,3.2c0,1.2,1.5,1.2,15.9,1.2
		c4.2,0,8.9-0.1,12.7-0.1c0.7,0,1.9,0.4,1.9,1.6c0,0.3-0.1,1-0.5,1.4l-25.4,28.7c-0.4,0.4-0.6,1-0.6,1.4c0,0.5,0.6,0.8,1.1,0.8
		c0.5,0,1.2-0.1,1.8-0.1l14.4-0.9c1.1-0.1,2.2-0.1,3.3-0.4c2.2-0.6,3.4-5.7,4.5-6h0.9c0.9,0,1.3,0.6,1.3,1.9c0,0.8-0.5,3.7-0.7,5.9
		c-0.2,2.6-0.9,2.8-3,2.8c-3.8,0-9.6-0.2-11.2-0.2c-7.4,0-15.2,0.2-22.1,0.2c-1.5,0-2.6-0.2-2.6-1.2c0-0.7,0.2-1.1,0.5-1.4L160.9,86
		z"/>
</g>
</svg>
